<svg width="27" height="23" viewBox="0 0 27 23" fill="none" xmlns="http://www.w3.org/2000/svg">
<path d="M11.4821 0.322192C8.82869 0.635564 6.41192 1.50932 4.55637 2.81738C2.59447 4.20795 1.38305 6.02695 1.12904 7.9615C1.00506 8.89572 1.07586 9.20371 1.44807 9.41792C1.63707 9.52785 1.71394 9.52785 13.4382 9.52785C26.4745 9.52785 25.4639 9.55526 25.7061 9.18168C25.8538 8.96183 25.8596 8.42861 25.7356 7.73627C25.446 6.18632 24.7074 4.91131 23.3717 3.67473C21.4985 1.93261 19.0341 0.849774 15.855 0.371645C15.0395 0.245322 12.3742 0.217906 11.4821 0.322192ZM14.7144 1.78425C17.0901 1.98206 19.117 2.60855 20.8602 3.68575C21.658 4.18028 22.6802 5.0981 23.1235 5.71921C23.6257 6.42821 24.1103 7.5054 24.1103 7.9287V8.044H2.76556L2.80689 7.81314C3.00773 6.70289 3.92959 5.30693 5.07019 4.38911C7.45169 2.46557 11.1157 1.47626 14.7144 1.78425Z" fill="white"/>
<path d="M7.78864 4.41114C7.62306 4.54848 7.59358 4.60895 7.59358 4.8288C7.59358 5.04865 7.62306 5.10912 7.78864 5.24646C7.93053 5.3674 8.03687 5.40584 8.21403 5.40584C8.39118 5.40584 8.49753 5.3674 8.63941 5.24646C8.80499 5.10912 8.83447 5.04865 8.83447 4.8288C8.83447 4.60895 8.80499 4.54848 8.63941 4.41114C8.49753 4.2902 8.39118 4.25177 8.21403 4.25177C8.03687 4.25177 7.93053 4.2902 7.78864 4.41114Z" fill="white"/>
<path d="M18.4255 4.41114C18.2599 4.54848 18.2304 4.60895 18.2304 4.8288C18.2304 5.04865 18.2599 5.10912 18.4255 5.24646C18.5674 5.3674 18.6737 5.40584 18.8509 5.40584C19.028 5.40584 19.1344 5.3674 19.2763 5.24646C19.4418 5.10912 19.4713 5.04865 19.4713 4.8288C19.4713 4.60895 19.4418 4.54848 19.2763 4.41114C19.1344 4.2902 19.028 4.25177 18.8509 4.25177C18.6737 4.25177 18.5674 4.2902 18.4255 4.41114Z" fill="white"/>
<path d="M13.1071 4.96076C12.9415 5.0981 12.912 5.15857 12.912 5.37842C12.912 5.59827 12.9415 5.65874 13.1071 5.79608C13.249 5.91702 13.3553 5.95546 13.5325 5.95546C13.7096 5.95546 13.816 5.91702 13.9578 5.79608C14.1231 5.65874 14.1529 5.59827 14.1529 5.37842C14.1529 5.15857 14.1234 5.0981 13.9578 4.96076C13.816 4.83982 13.7096 4.80139 13.5325 4.80139C13.3553 4.80139 13.249 4.83982 13.1071 4.96076Z" fill="white"/>
<path d="M3.78191 10.028C2.93086 10.0995 2.09773 10.4511 1.50097 10.9843C1.29407 11.1657 1.11085 11.3799 1.09322 11.468C0.986873 11.8583 1.25274 12.2706 1.67234 12.3748C1.97953 12.4517 2.24567 12.3695 2.58235 12.1002C3.21464 11.5946 4.02436 11.4022 4.78642 11.5836C5.26498 11.6989 5.55454 11.8529 6.03916 12.2652C6.83097 12.9357 7.65254 13.2599 8.65704 13.3039C9.85083 13.359 10.7964 13.0182 11.7714 12.1827C12.4745 11.5836 13.3137 11.3748 14.1292 11.5946C14.5725 11.7153 14.8858 11.8913 15.3822 12.309C15.8905 12.7377 16.6763 13.1223 17.2852 13.2378C18.5734 13.4907 19.9088 13.1443 20.9136 12.298C21.4751 11.8309 21.9479 11.6164 22.5328 11.578C23.1414 11.5339 23.6792 11.6879 24.1993 12.0561C24.7016 12.4079 24.7666 12.4407 25.0385 12.4407C25.6295 12.4407 26.0136 11.8362 25.7359 11.3415C25.5171 10.9512 24.4771 10.3468 23.6971 10.1543C23.1948 10.0334 22.2551 10.028 21.747 10.1487C21.126 10.2973 20.4524 10.6381 19.9681 11.0447C19.7259 11.2536 19.3595 11.4898 19.1468 11.5833C18.7922 11.7427 18.7153 11.7537 18.1423 11.7537C17.5689 11.7537 17.4923 11.7427 17.1317 11.5833C16.919 11.4844 16.5644 11.259 16.3399 11.0722C15.6013 10.4457 14.8566 10.1213 13.9465 10.028C12.747 9.90169 11.6538 10.2422 10.6964 11.0394C10.0814 11.5505 9.63235 11.7427 8.97057 11.7704C8.14928 11.8088 7.80655 11.6715 6.87863 10.9405C5.99205 10.2425 4.92858 9.92911 3.78191 10.028Z" fill="white"/>
<path d="M0.390121 14.0291C0.301407 14.0842 0.171367 14.2049 0.112408 14.2874C0.00606121 14.4357 0 14.5787 0 16.3154C0 18.0522 0.0057857 18.1952 0.112408 18.3435C0.283774 18.5854 0.525947 18.7063 0.8392 18.7063C1.09928 18.7063 1.12297 18.7174 1.15245 18.8547C1.17009 18.9426 1.27065 19.2503 1.36515 19.5417C1.89109 21.097 3.2207 22.2951 4.9936 22.8117L5.52533 22.9654H13.4145C20.9668 22.9654 21.3214 22.9601 21.7173 22.8609C23.6792 22.3664 25.1683 20.9758 25.6648 19.1842L25.7948 18.7061H26.167C26.504 18.7061 26.5511 18.6897 26.758 18.5193L26.9767 18.3325L26.9944 16.42C27.012 14.3535 27.0062 14.304 26.699 14.0621L26.5216 13.9248H13.5443C0.927915 13.9248 0.555426 13.9302 0.390121 14.0291ZM25.3986 16.299L25.381 17.1948H1.62495L1.60732 16.3705C1.60153 15.9198 1.60732 15.5186 1.61917 15.4801C1.64286 15.4197 3.86484 15.4086 13.5325 15.4086H25.4105L25.3986 16.299ZM24.1103 18.7612C24.1103 18.9152 23.7795 19.5911 23.5431 19.9209C23.2003 20.399 22.7336 20.7893 22.1542 21.0696C21.2442 21.5093 21.8115 21.4818 13.4437 21.4818C6.48245 21.4818 5.97414 21.4765 5.61377 21.3829C4.44947 21.0862 3.55131 20.3993 3.06091 19.443C2.96641 19.2562 2.87191 19.0143 2.854 18.9044L2.81846 18.7066H13.4672C20.3579 18.7061 24.1103 18.7227 24.1103 18.7612Z" fill="white"/>
</svg>
