<svg width="219" height="82" viewBox="0 0 219 82" fill="none" xmlns="http://www.w3.org/2000/svg">
<path fill-rule="evenodd" clip-rule="evenodd" d="M6.911 72.9434H10.638C12.2756 72.9434 13.6527 72.6732 14.7949 72.1656C15.9327 71.6599 16.7735 70.952 17.3596 70.0504C17.944 69.1513 18.251 68.0855 18.251 66.8154C18.251 65.5453 17.944 64.4795 17.3596 63.5804C16.7735 62.6788 15.9327 61.9709 14.7949 61.4652C13.6527 60.9576 12.2756 60.6874 10.638 60.6874H2.539V77.5874H6.911V72.9434ZM7.911 73.9434H10.638C12.384 73.9434 13.905 73.6554 15.201 73.0794C16.497 72.5034 17.496 71.6754 18.198 70.5954C18.9 69.5154 19.251 68.2554 19.251 66.8154C19.251 65.3754 18.9 64.1154 18.198 63.0354C17.496 61.9554 16.497 61.1274 15.201 60.5514C13.905 59.9754 12.384 59.6874 10.638 59.6874H1.539V78.5874H7.911V73.9434ZM12.8442 69.2074L12.8355 69.215C12.1484 69.8162 11.2208 70.0294 10.233 70.0294H6.911V63.6014H10.233C11.2264 63.6014 12.1575 63.8263 12.844 64.4503C13.5345 65.0592 13.825 65.8987 13.825 66.8154C13.825 67.7375 13.5319 68.577 12.8527 69.1996L12.8442 69.2074ZM12.177 65.1954C11.745 64.7994 11.097 64.6014 10.233 64.6014H7.911V69.0294H10.233C11.097 69.0294 11.745 68.8404 12.177 68.4624C12.609 68.0664 12.825 67.5174 12.825 66.8154C12.825 66.1134 12.609 65.5734 12.177 65.1954ZM37.2617 72.8354L40.4748 77.5874H44.8576L41.3166 72.3842L42.3205 71.8666C43.3255 71.3484 44.0629 70.6686 44.57 69.8334C45.0739 69.0035 45.3428 68.0094 45.3428 66.8154C45.3428 65.5453 45.0357 64.4795 44.4513 63.5804C43.8653 62.6788 43.0244 61.9709 41.8866 61.4652C40.7444 60.9576 39.3673 60.6874 37.7298 60.6874H29.6308V77.5874H34.0028V72.8354H37.2617ZM46.7478 78.5874H39.9438L36.7308 73.8354H35.0028V78.5874H28.6308V59.6874H37.7298C39.4758 59.6874 40.9968 59.9754 42.2928 60.5514C43.5888 61.1274 44.5878 61.9554 45.2898 63.0354C45.9918 64.1154 46.3428 65.3754 46.3428 66.8154C46.3428 68.1654 46.0368 69.3444 45.4248 70.3524C44.9749 71.0934 44.3791 71.7225 43.6374 72.2398C43.3702 72.4262 43.0839 72.598 42.7788 72.7554L46.7478 78.5874ZM39.2688 68.4624C38.8368 68.8404 38.1888 69.0294 37.3248 69.0294H35.0028V64.6014H37.3248C38.1888 64.6014 38.8368 64.7994 39.2688 65.1954C39.7008 65.5734 39.9168 66.1134 39.9168 66.8154C39.9168 67.5174 39.7008 68.0664 39.2688 68.4624ZM39.9357 64.4503C39.2492 63.8263 38.3182 63.6014 37.3248 63.6014H34.0028V70.0294H37.3248C38.3125 70.0294 39.2401 69.8162 39.9273 69.215L39.936 69.2074L39.9445 69.1996C40.6237 68.5769 40.9168 67.7375 40.9168 66.8154C40.9168 65.8987 40.6262 65.0592 39.9357 64.4503ZM56.6599 64.0614C55.7419 65.5554 55.2829 67.2474 55.2829 69.1374C55.2829 71.0274 55.7419 72.7284 56.6599 74.2404C57.5779 75.7344 58.8469 76.9044 60.4669 77.7504C62.0869 78.5964 63.9139 79.0194 65.9479 79.0194C67.9819 79.0194 69.8089 78.5964 71.4289 77.7504C73.0489 76.9044 74.3179 75.7344 75.2359 74.2404C76.1539 72.7284 76.6129 71.0274 76.6129 69.1374C76.6129 67.2474 76.1539 65.5554 75.2359 64.0614C74.3179 62.5494 73.0489 61.3704 71.4289 60.5244C69.8089 59.6784 67.9819 59.2554 65.9479 59.2554C63.9139 59.2554 62.0869 59.6784 60.4669 60.5244C58.8469 61.3704 57.5779 62.5494 56.6599 64.0614ZM74.3822 73.7197C75.198 72.3753 75.6129 70.8567 75.6129 69.1374C75.6129 67.4173 75.1976 65.9092 74.3839 64.5849L74.3811 64.5804C73.5611 63.2297 72.43 62.1753 70.966 61.4108C69.5044 60.6475 67.8392 60.2554 65.9479 60.2554C64.0566 60.2554 62.3914 60.6475 60.9298 61.4108C59.4659 62.1753 58.3348 63.2297 57.5147 64.5804L57.5119 64.5849C56.6982 65.9092 56.2829 67.4173 56.2829 69.1374C56.2829 70.8567 56.6979 72.3753 57.5137 73.7197C58.3329 75.0518 59.4639 76.0984 60.9298 76.864C62.3914 77.6273 64.0566 78.0194 65.9479 78.0194C67.8392 78.0194 69.5044 77.6273 70.966 76.864C72.432 76.0984 73.563 75.0518 74.3822 73.7197ZM70.5053 72.1132L70.5004 72.1225C70.0428 72.9724 69.4092 73.6556 68.6024 74.1487L68.5954 74.1529C67.7979 74.6314 66.9065 74.8624 65.9479 74.8624C64.9891 74.8624 64.0936 74.6314 63.2841 74.1592L63.2698 74.1508L63.2558 74.142C62.469 73.6475 61.8494 72.9655 61.3955 72.1225L61.3905 72.1133C60.9252 71.2269 60.7089 70.2253 60.7089 69.1374C60.7089 68.0524 60.9241 67.0569 61.3928 66.1843C61.8458 65.323 62.4692 64.6324 63.27 64.151C64.081 63.6562 64.9816 63.4124 65.9479 63.4124C66.9099 63.4124 67.8028 63.6542 68.5991 64.151C69.4146 64.6304 70.0483 65.3197 70.5031 66.1843C70.9717 67.0569 71.1869 68.0524 71.1869 69.1374C71.1869 70.2253 70.9706 71.2269 70.5053 72.1132ZM69.6199 66.6534C69.2419 65.9334 68.7289 65.3844 68.0809 65.0064C67.4509 64.6104 66.7399 64.4124 65.9479 64.4124C65.1559 64.4124 64.4359 64.6104 63.7879 65.0064C63.1579 65.3844 62.6539 65.9334 62.2759 66.6534C61.8979 67.3554 61.7089 68.1834 61.7089 69.1374C61.7089 70.0914 61.8979 70.9284 62.2759 71.6484C62.6539 72.3504 63.1579 72.8994 63.7879 73.2954C64.4359 73.6734 65.1559 73.8624 65.9479 73.8624C66.7399 73.8624 67.4509 73.6734 68.0809 73.2954C68.7289 72.8994 69.2419 72.3504 69.6199 71.6484C69.9979 70.9284 70.1869 70.0914 70.1869 69.1374C70.1869 68.1834 69.9979 67.3554 69.6199 66.6534ZM103.091 78.5874H108.896L108.842 59.6874H103.604L97.6096 69.7584L91.4536 59.6874H86.2156V78.5874H92.0206V70.2714L96.1246 76.8864H98.9326L103.037 69.9744L103.091 78.5874ZM98.3634 75.8864L104.014 66.3695L104.084 77.5874H107.893L107.844 60.6874H104.172L97.6211 71.6945L90.8929 60.6874H87.2156V77.5874H91.0206V66.7627L96.6811 75.8864H98.3634ZM125.53 73.7814V71.2974H133.522V66.7074H125.53V64.4934H134.629V59.6874H119.266V78.5874H134.98V73.7814H125.53ZM133.98 74.7814H124.53V70.2974H132.522V67.7074H124.53V63.4934H133.629V60.6874H120.266V77.5874H133.98V74.7814ZM149.827 63.6284V77.5874H154.199V63.6284H159.734V60.6874H144.292V63.6284H149.827ZM148.827 64.6284V78.5874H155.199V64.6284H160.734V59.6874H143.292V64.6284H148.827ZM175.943 73.7814V71.2974H183.935V66.7074H175.943V64.4934H185.042V59.6874H169.679V78.5874H185.393V73.7814H175.943ZM184.393 74.7814H174.943V70.2974H182.935V67.7074H174.943V63.4934H184.042V60.6874H170.679V77.5874H184.393V74.7814ZM195.757 64.0614C194.839 65.5554 194.38 67.2474 194.38 69.1374C194.38 71.0274 194.839 72.7284 195.757 74.2404C196.675 75.7344 197.944 76.9044 199.564 77.7504C201.184 78.5964 203.011 79.0194 205.045 79.0194C207.079 79.0194 208.906 78.5964 210.526 77.7504C212.146 76.9044 213.415 75.7344 214.333 74.2404C215.251 72.7284 215.71 71.0274 215.71 69.1374C215.71 67.2474 215.251 65.5554 214.333 64.0614C213.415 62.5494 212.146 61.3704 210.526 60.5244C208.906 59.6784 207.079 59.2554 205.045 59.2554C203.011 59.2554 201.184 59.6784 199.564 60.5244C197.944 61.3704 196.675 62.5494 195.757 64.0614ZM213.48 73.7197C214.295 72.3753 214.71 70.8567 214.71 69.1374C214.71 67.4173 214.295 65.9092 213.481 64.5849L213.479 64.5804C212.659 63.2297 211.527 62.1753 210.063 61.4108C208.602 60.6475 206.937 60.2554 205.045 60.2554C203.154 60.2554 201.489 60.6475 200.027 61.4108C198.563 62.1753 197.432 63.2296 196.612 64.5804L196.609 64.5849C195.796 65.9092 195.38 67.4173 195.38 69.1374C195.38 70.8567 195.795 72.3753 196.611 73.7197C197.43 75.0518 198.561 76.0984 200.027 76.864C201.489 77.6273 203.154 78.0194 205.045 78.0194C206.937 78.0194 208.602 77.6273 210.063 76.864C211.529 76.0984 212.66 75.0518 213.48 73.7197ZM209.603 72.1132L209.598 72.1225C209.14 72.9724 208.507 73.6556 207.7 74.1487L207.693 74.1529C206.895 74.6314 206.004 74.8624 205.045 74.8624C204.087 74.8624 203.191 74.6314 202.382 74.1592L202.367 74.1508L202.353 74.142C201.566 73.6475 200.947 72.9655 200.493 72.1225L200.488 72.1133C200.023 71.2269 199.806 70.2253 199.806 69.1374C199.806 68.0518 200.022 67.0559 200.491 66.1829C200.944 65.3224 201.567 64.6323 202.367 64.1511C203.178 63.6563 204.079 63.4124 205.045 63.4124C206.007 63.4124 206.9 63.6541 207.696 64.1509C208.511 64.63 209.145 65.3189 209.6 66.1829C210.069 67.0558 210.284 68.0518 210.284 69.1374C210.284 70.2253 210.068 71.2269 209.603 72.1132ZM208.717 66.6534C208.339 65.9334 207.826 65.3844 207.178 65.0064C206.548 64.6104 205.837 64.4124 205.045 64.4124C204.253 64.4124 203.533 64.6104 202.885 65.0064C202.255 65.3844 201.751 65.9334 201.373 66.6534C200.995 67.3554 200.806 68.1834 200.806 69.1374C200.806 70.0914 200.995 70.9284 201.373 71.6484C201.751 72.3504 202.255 72.8994 202.885 73.2954C203.533 73.6734 204.253 73.8624 205.045 73.8624C205.837 73.8624 206.548 73.6734 207.178 73.2954C207.826 72.8994 208.339 72.3504 208.717 71.6484C209.095 70.9284 209.284 70.0914 209.284 69.1374C209.284 68.1834 209.095 67.3554 208.717 66.6534ZM42.4639 12.0132C42.9824 11.8979 43.6546 11.8403 44.4805 11.8403V1.15234H27.7427V11.8403C30.6043 11.8403 31.6991 12.8102 31.0269 14.75L26.4463 28.7222H26.187L21.7217 14.75C21.0495 12.8102 22.1442 11.8403 25.0059 11.8403V1.15234H0V11.8403C0.825846 11.8403 1.48844 11.8979 1.98779 12.0132C2.50635 12.1284 2.92887 12.3301 3.25537 12.6182C3.60107 12.887 3.86995 13.2231 4.06201 13.6265C4.27327 14.0106 4.49414 14.5003 4.72461 15.0957L15.8159 43.5874H28.6069L39.7559 15.0957C40.0055 14.5003 40.2264 14.0106 40.4185 13.6265C40.6105 13.2231 40.8698 12.887 41.1963 12.6182C41.542 12.3301 41.9645 12.1284 42.4639 12.0132ZM40.5588 11.8477C41.04 11.4474 41.6095 11.1841 42.239 11.0388L42.2469 11.037C42.6125 10.9557 43.0253 10.9018 43.4805 10.8713V2.15234H28.7427V10.8821C29.8039 10.9775 30.7292 11.2488 31.3731 11.8193C32.3441 12.6795 32.3767 13.9026 31.9746 15.0691L27.1708 29.7222H25.4568L20.7727 15.0654C20.3719 13.9 20.4055 12.6786 21.3754 11.8193C22.0193 11.2488 22.9446 10.9775 24.0059 10.8821V2.15234H1V10.8716C1.44849 10.9022 1.85336 10.9562 2.20872 11.0379C2.84399 11.1796 3.42036 11.4385 3.89325 11.8476C4.34508 12.2047 4.69926 12.6491 4.95175 13.1692C5.18706 13.6007 5.42146 14.1259 5.65683 14.7338C5.65695 14.7341 5.65672 14.7335 5.65683 14.7338L16.4997 42.5874H27.9244L38.829 14.7201L38.8337 14.709C39.0865 14.1062 39.3154 13.5971 39.52 13.1873C39.7707 12.664 40.1164 12.2125 40.5588 11.8477ZM70.2192 32.2368C69.5086 31.7759 69.1533 30.9212 69.1533 29.6729V15.0957C69.1533 13.8281 69.5086 12.9735 70.2192 12.5317C70.949 12.0708 72.159 11.8403 73.8491 11.8403V1.15234H47.4316V11.8403C49.1217 11.8403 50.3317 12.0708 51.0615 12.5317C51.7913 12.9735 52.1562 13.8281 52.1562 15.0957V29.6729C52.1562 30.9212 51.7913 31.7759 51.0615 32.2368C50.3317 32.6785 49.1217 32.8994 47.4316 32.8994V43.5874H73.8491V32.8994C72.159 32.8994 70.949 32.6785 70.2192 32.2368ZM72.8491 33.8722C71.5643 33.798 70.4827 33.5652 69.7014 33.0923L69.6881 33.0843L69.675 33.0758C68.561 32.3532 68.1533 31.088 68.1533 29.6729V15.0957C68.1533 13.6741 68.5547 12.3912 69.6876 11.6847C70.4731 11.1895 71.5606 10.9461 72.8491 10.8686V2.15234H48.4316V10.8686C49.7171 10.9459 50.8024 11.1884 51.5875 11.6812C52.7398 12.3835 53.1562 13.6655 53.1562 15.0957V29.6729C53.1562 31.0982 52.7325 32.3642 51.5955 33.0823L51.5874 33.0874L51.5793 33.0923C50.7981 33.5652 49.7164 33.798 48.4316 33.8722V42.5874H72.8491V33.8722ZM99.7319 32.8994V24.6025H108.922V19.5034H99.7319V11.8403H104.917C105.705 11.8403 106.358 11.9172 106.876 12.0708C107.414 12.2052 107.837 12.4549 108.144 12.8198C108.471 13.1847 108.691 13.6937 108.807 14.3467C108.922 14.9997 108.979 15.8351 108.979 16.853H119.062V1.15234H78.0102V11.8403C79.7003 11.8403 80.9103 12.0708 81.6401 12.5317C82.3699 12.9735 82.7348 13.8281 82.7348 15.0957V29.6729C82.7348 30.9212 82.3699 31.7759 81.6401 32.2368C80.9103 32.6785 79.7003 32.8994 78.0102 32.8994V43.5874H119.062V27.8867H108.979C108.979 28.9046 108.922 29.7401 108.807 30.3931C108.691 31.0461 108.471 31.5646 108.144 31.9487C107.837 32.3136 107.414 32.5633 106.876 32.6978C106.358 32.8322 105.705 32.8994 104.917 32.8994H99.7319ZM107.123 33.6668C106.495 33.8291 105.752 33.8994 104.917 33.8994H98.7319V23.6025H107.922V20.5034H98.7319V10.8403H104.917C105.752 10.8403 106.502 10.92 107.14 11.106C107.834 11.2832 108.441 11.6255 108.899 12.1642C109.38 12.7073 109.656 13.4046 109.791 14.1729C109.877 14.6606 109.932 15.2223 109.959 15.853H118.062V2.15234H79.0102V10.8686C80.2958 10.9459 81.3812 11.1884 82.1663 11.6814C83.3185 12.3837 83.7348 13.6657 83.7348 15.0957V29.6729C83.7348 31.0982 83.3111 32.3642 82.1741 33.0823L82.166 33.0874L82.1579 33.0923C81.3767 33.5652 80.295 33.798 79.0102 33.8722V42.5874H118.062V28.8867H109.959C109.932 29.5174 109.877 30.0792 109.791 30.5669C109.655 31.3407 109.379 32.0399 108.907 32.5955C108.444 33.1436 107.828 33.4898 107.123 33.6668ZM126.777 29.7792L128.709 29.3715C128.877 29.8088 129.099 30.2635 129.378 30.7356C129.65 31.1668 129.979 31.5603 130.365 31.9169C130.742 32.23 131.208 32.4972 131.778 32.7093C132.328 32.9075 133.05 33.0229 133.969 33.0229C134.655 33.0229 135.304 32.8888 135.922 32.6207C136.559 32.3255 137.08 31.9496 137.501 31.4978L137.502 31.4969C137.947 31.0198 138.304 30.4483 138.569 29.7702L138.573 29.7605L138.577 29.7508C138.848 29.0968 138.99 28.3644 138.99 27.541C138.99 26.7903 138.865 26.0565 138.614 25.3352L138.61 25.3254L138.607 25.3154C138.385 24.6343 138.022 24.0222 137.505 23.473C137.001 22.9374 136.348 22.495 135.521 22.1578L135.513 22.1545L135.505 22.1511C134.721 21.815 133.72 21.627 132.471 21.627C131.472 21.627 130.52 21.8209 129.608 22.2096L129.6 22.2127L129.593 22.2156C128.7 22.5795 127.91 23.1341 127.218 23.8932C126.53 24.649 125.946 25.6206 125.483 26.8322C125.035 28.0031 124.8 29.3764 124.8 30.9692C124.8 32.0116 125.015 33.2928 125.477 34.8293C125.911 36.269 126.698 37.6631 127.866 39.0114C129.013 40.3142 130.636 41.446 132.783 42.3819C134.881 43.2886 137.642 43.7686 141.114 43.7686C144.791 43.7686 147.72 43.2419 149.949 42.2442C152.247 41.1961 153.997 39.9232 155.244 38.4477L155.248 38.4425C156.541 36.9344 157.417 35.299 157.894 33.5318C158.394 31.6795 158.638 29.982 158.638 28.4341V15.0957C158.638 13.6738 159.039 12.3907 160.173 11.6843C160.958 11.1894 162.045 10.9461 163.333 10.8686V2.15234H138.57V10.8603C139.207 10.8872 139.779 10.9419 140.28 11.0274C141.011 11.1517 141.68 11.3547 142.189 11.7011C143.218 12.3812 143.641 13.4889 143.641 14.75V28.4917C143.641 29.519 143.505 30.5196 143.231 31.4907C142.962 32.5152 142.48 33.4342 141.79 34.2374C141.09 35.0747 140.151 35.7157 139.02 36.1853L139.011 36.189C137.854 36.6562 136.448 36.8667 134.833 36.8667C133.434 36.8667 132.203 36.6954 131.174 36.3149L131.165 36.3117L131.156 36.3082C130.168 35.9216 129.327 35.3986 128.669 34.7175L128.663 34.7115L128.658 34.7053C128.022 34.0239 127.554 33.2364 127.259 32.3514C126.98 31.516 126.819 30.6578 126.777 29.7792ZM141.027 33.5908C141.623 32.8994 142.036 32.112 142.266 31.2285C142.516 30.3451 142.641 29.4328 142.641 28.4917V14.75C142.641 13.7129 142.304 12.9735 141.632 12.5317C140.96 12.0708 139.606 11.8403 137.57 11.8403V1.15234H164.333V11.8403C162.643 11.8403 161.433 12.0708 160.704 12.5317C159.993 12.9735 159.638 13.8281 159.638 15.0957V28.4341C159.638 30.0858 159.378 31.8719 158.86 33.7925C158.341 35.7131 157.391 37.48 156.008 39.0933C154.644 40.7065 152.762 42.0605 150.361 43.1553C147.961 44.2308 144.878 44.7686 141.114 44.7686C137.561 44.7686 134.651 44.2788 132.385 43.2993C130.138 42.3198 128.38 41.1099 127.113 39.6694C125.864 38.229 125 36.7118 124.52 35.1177C124.04 33.5236 123.8 32.1408 123.8 30.9692C123.8 29.2791 124.049 27.7811 124.549 26.4751C125.048 25.1691 125.692 24.084 126.479 23.2197C127.266 22.3555 128.179 21.7121 129.216 21.2896C130.253 20.8478 131.338 20.627 132.471 20.627C133.816 20.627 134.958 20.8286 135.899 21.2319C136.84 21.616 137.618 22.1346 138.233 22.7876C138.847 23.4406 139.289 24.18 139.558 25.0059C139.846 25.8317 139.99 26.6768 139.99 27.541C139.99 28.4821 139.827 29.3464 139.5 30.1338C139.193 30.9212 138.771 31.603 138.233 32.1792C137.714 32.7362 137.081 33.1875 136.331 33.5332C135.582 33.8597 134.795 34.0229 133.969 34.0229C132.97 34.0229 132.125 33.8981 131.434 33.6484C130.762 33.3988 130.186 33.0723 129.706 32.6689C129.625 32.5951 129.546 32.5198 129.47 32.443C129.268 32.2397 129.08 32.0262 128.906 31.8023C128.77 31.627 128.643 31.4453 128.524 31.2573C128.217 30.7388 127.967 30.2298 127.775 29.7305C127.805 30.3434 127.899 30.9446 128.057 31.5343C128.058 31.5392 128.06 31.5441 128.061 31.5491C128.105 31.712 128.154 31.874 128.207 32.0352C128.327 32.3925 128.479 32.7303 128.663 33.0483C128.866 33.3968 129.107 33.7217 129.389 34.0229C129.926 34.5799 130.637 35.0312 131.52 35.377C132.404 35.7034 133.508 35.8667 134.833 35.8667C136.37 35.8667 137.637 35.665 138.636 35.2617C139.654 34.8392 140.451 34.2822 141.027 33.5908ZM217.095 12.6758C215.885 9.87175 214.166 7.52865 211.938 5.64648C209.729 3.76432 207.088 2.3527 204.016 1.41162C200.943 0.47054 197.562 0 193.875 0C190.168 0 186.778 0.47054 183.705 1.41162C180.652 2.3527 178.011 3.76432 175.783 5.64648C173.555 7.52865 171.827 9.87175 170.598 12.6758C169.388 15.4606 168.783 18.7064 168.783 22.4131C168.783 26.1006 169.388 29.3464 170.598 32.1504C171.827 34.9352 173.555 37.2783 175.783 39.1797C178.011 41.0618 180.652 42.4735 183.705 43.4146C186.778 44.3556 190.168 44.8262 193.875 44.8262C197.562 44.8262 200.943 44.3556 204.016 43.4146C207.088 42.4735 209.729 41.0618 211.938 39.1797C214.166 37.2783 215.885 34.9352 217.095 32.1504C218.324 29.3464 218.938 26.1006 218.938 22.4131C218.938 18.7064 218.324 15.4606 217.095 12.6758ZM211.289 38.419C213.397 36.6201 215.026 34.4025 216.177 31.7519L216.179 31.7489C217.342 29.0946 217.938 25.9901 217.938 22.4131C217.938 18.8158 217.342 15.7127 216.18 13.0796L216.176 13.072C215.025 10.4031 213.397 8.18798 211.293 6.41037L211.289 6.40761C209.195 4.62318 206.679 3.27317 203.723 2.36779C200.757 1.45968 197.478 1 193.875 1C190.253 1 186.963 1.4598 183.999 2.36772C181.062 3.27296 178.544 4.62338 176.428 6.41037C174.324 8.18839 172.686 10.4043 171.515 13.0743C170.37 15.7088 169.783 18.814 169.783 22.4131C169.783 25.99 170.369 29.095 171.514 31.7498C172.684 34.4004 174.323 36.6182 176.43 38.4171C178.545 40.2036 181.063 41.5537 183.999 42.4587C186.964 43.3665 190.253 43.8262 193.875 43.8262C197.478 43.8262 200.757 43.3665 203.723 42.4584C206.679 41.5531 209.195 40.2032 211.289 38.419ZM187.407 28.3717L187.407 28.3703C187.229 26.7468 187.142 24.7583 187.142 22.4131C187.142 20.1054 187.229 18.1273 187.407 16.4859C187.586 14.8379 187.9 13.4491 188.379 12.3595L188.382 12.3519L188.386 12.3443C188.89 11.2475 189.597 10.3774 190.542 9.82753C191.472 9.2672 192.606 9.02539 193.875 9.02539C195.099 9.02539 196.204 9.27199 197.14 9.82177C198.109 10.3711 198.821 11.245 199.31 12.3516C199.812 13.4457 200.135 14.8378 200.314 16.4859C200.492 18.1273 200.579 20.1054 200.579 22.4131C200.579 24.7583 200.492 26.7468 200.314 28.3703L200.314 28.3717C200.134 29.9864 199.81 31.3644 199.311 32.4713C198.822 33.5807 198.111 34.4605 197.149 35.0284L197.14 35.0332L197.132 35.038C196.197 35.5651 195.096 35.8008 193.875 35.8008C192.608 35.8008 191.479 35.5696 190.551 35.0324L190.542 35.0275L190.534 35.0225C189.596 34.4549 188.891 33.5801 188.386 32.4819L188.381 32.471L188.376 32.4601C187.901 31.3579 187.587 29.9843 187.407 28.3717ZM198.398 12.7622C197.975 11.8019 197.39 11.1105 196.641 10.688C195.892 10.2463 194.97 10.0254 193.875 10.0254C192.723 10.0254 191.781 10.2463 191.052 10.688C190.322 11.1105 189.736 11.8019 189.294 12.7622C188.872 13.7225 188.574 14.9997 188.401 16.5938C188.228 18.1878 188.142 20.1276 188.142 22.4131C188.142 24.737 188.228 26.6864 188.401 28.2612C188.574 29.8169 188.872 31.0845 189.294 32.064C189.736 33.0243 190.322 33.7253 191.052 34.167C191.781 34.5895 192.723 34.8008 193.875 34.8008C194.97 34.8008 195.892 34.5895 196.641 34.167C197.39 33.7253 197.975 33.0243 198.398 32.064C198.84 31.0845 199.147 29.8169 199.32 28.2612C199.493 26.6864 199.579 24.737 199.579 22.4131C199.579 20.1276 199.493 18.1878 199.32 16.5938C199.147 14.9997 198.84 13.7225 198.398 12.7622Z" fill="black"/>
<path d="M4.72461 18.5083C4.49414 17.9129 4.27327 17.4232 4.06201 17.0391C3.86995 16.6357 3.60107 16.2996 3.25537 16.0308C2.92887 15.7427 2.50635 15.541 1.98779 15.4258C1.48844 15.3105 0.825846 15.2529 0 15.2529V4.56494H25.0059V15.2529C22.1442 15.2529 21.0495 16.2228 21.7217 18.1626L26.187 32.1348H26.4463L31.0269 18.1626C31.6991 16.2228 30.6043 15.2529 27.7427 15.2529V4.56494H44.4805V15.2529C43.6546 15.2529 42.9824 15.3105 42.4639 15.4258C41.9645 15.541 41.542 15.7427 41.1963 16.0308C40.8698 16.2996 40.6105 16.6357 40.4185 17.0391C40.2264 17.4232 40.0055 17.9129 39.7559 18.5083L28.6069 47H15.8159L4.72461 18.5083Z" fill="black"/>
<path d="M47.4316 47V36.312C49.1217 36.312 50.3317 36.0911 51.0615 35.6494C51.7913 35.1885 52.1562 34.3338 52.1562 33.0854V18.5083C52.1562 17.2407 51.7913 16.3861 51.0615 15.9443C50.3317 15.4834 49.1217 15.2529 47.4316 15.2529V4.56494H73.8491V15.2529C72.159 15.2529 70.949 15.4834 70.2192 15.9443C69.5086 16.3861 69.1533 17.2407 69.1533 18.5083V33.0854C69.1533 34.3338 69.5086 35.1885 70.2192 35.6494C70.949 36.0911 72.159 36.312 73.8491 36.312V47H47.4316Z" fill="black"/>
<path d="M104.917 36.312C105.705 36.312 106.358 36.2448 106.876 36.1104C107.414 35.9759 107.837 35.7262 108.144 35.3613C108.471 34.9772 108.691 34.4587 108.807 33.8057C108.922 33.1527 108.979 32.3172 108.979 31.2993H119.062V47H78.0102V36.312C79.7003 36.312 80.9103 36.0911 81.6401 35.6494C82.3699 35.1885 82.7348 34.3338 82.7348 33.0854V18.5083C82.7348 17.2407 82.3699 16.3861 81.6401 15.9443C80.9103 15.4834 79.7003 15.2529 78.0102 15.2529V4.56494H119.062V20.2656H108.979C108.979 19.2477 108.922 18.4123 108.807 17.7593C108.691 17.1063 108.471 16.5973 108.144 16.2324C107.837 15.8675 107.414 15.6178 106.876 15.4834C106.358 15.3298 105.705 15.2529 104.917 15.2529H99.7319V22.916H108.922V28.0151H99.7319V36.312H104.917Z" fill="black"/>
<path d="M127.775 33.1431C127.814 33.9305 127.958 34.6987 128.207 35.4478C128.457 36.1968 128.851 36.8594 129.389 37.4355C129.926 37.9925 130.637 38.4438 131.52 38.7896C132.404 39.116 133.508 39.2793 134.833 39.2793C136.37 39.2793 137.637 39.0776 138.636 38.6743C139.654 38.2518 140.451 37.6948 141.027 37.0034C141.623 36.312 142.036 35.5246 142.266 34.6411C142.516 33.7577 142.641 32.8454 142.641 31.9043V18.1626C142.641 17.1255 142.304 16.3861 141.632 15.9443C140.96 15.4834 139.606 15.2529 137.57 15.2529V4.56494H164.333V15.2529C162.643 15.2529 161.433 15.4834 160.704 15.9443C159.993 16.3861 159.638 17.2407 159.638 18.5083V31.8467C159.638 33.4984 159.378 35.2845 158.86 37.2051C158.341 39.1257 157.391 40.8926 156.008 42.5059C154.644 44.1191 152.762 45.4731 150.361 46.5679C147.961 47.6434 144.878 48.1812 141.114 48.1812C137.561 48.1812 134.651 47.6914 132.385 46.7119C130.138 45.7324 128.38 44.5225 127.113 43.082C125.864 41.6416 125 40.1243 124.52 38.5303C124.04 36.9362 123.8 35.5534 123.8 34.3818C123.8 32.6917 124.049 31.1937 124.549 29.8877C125.048 28.5817 125.692 27.4966 126.479 26.6323C127.266 25.7681 128.179 25.1247 129.216 24.7021C130.253 24.2604 131.338 24.0396 132.471 24.0396C133.816 24.0396 134.958 24.2412 135.899 24.6445C136.84 25.0286 137.618 25.5472 138.233 26.2002C138.847 26.8532 139.289 27.5926 139.558 28.4185C139.846 29.2443 139.99 30.0894 139.99 30.9536C139.99 31.8947 139.827 32.759 139.5 33.5464C139.193 34.3338 138.771 35.0156 138.233 35.5918C137.714 36.1488 137.081 36.6001 136.331 36.9458C135.582 37.2723 134.795 37.4355 133.969 37.4355C132.97 37.4355 132.125 37.3107 131.434 37.061C130.762 36.8114 130.186 36.4849 129.706 36.0815C129.245 35.659 128.851 35.1885 128.524 34.6699C128.217 34.1514 127.967 33.6424 127.775 33.1431Z" fill="black"/>
<path d="M168.783 25.8257C168.783 22.119 169.388 18.8732 170.598 16.0884C171.827 13.2843 173.555 10.9412 175.783 9.05908C178.011 7.17692 180.652 5.7653 183.705 4.82422C186.778 3.88314 190.168 3.4126 193.875 3.4126C197.562 3.4126 200.943 3.88314 204.016 4.82422C207.088 5.7653 209.729 7.17692 211.938 9.05908C214.166 10.9412 215.885 13.2843 217.095 16.0884C218.324 18.8732 218.938 22.119 218.938 25.8257C218.938 29.5132 218.324 32.759 217.095 35.563C215.885 38.3478 214.166 40.6909 211.938 42.5923C209.729 44.4744 207.088 45.8861 204.016 46.8271C200.943 47.7682 197.562 48.2388 193.875 48.2388C190.168 48.2388 186.778 47.7682 183.705 46.8271C180.652 45.8861 178.011 44.4744 175.783 42.5923C173.555 40.6909 171.827 38.3478 170.598 35.563C169.388 32.759 168.783 29.5132 168.783 25.8257ZM188.142 25.8257C188.142 28.1496 188.228 30.099 188.401 31.6738C188.574 33.2295 188.872 34.4971 189.294 35.4766C189.736 36.4368 190.322 37.1379 191.052 37.5796C191.781 38.0021 192.723 38.2134 193.875 38.2134C194.97 38.2134 195.892 38.0021 196.641 37.5796C197.39 37.1379 197.975 36.4368 198.398 35.4766C198.84 34.4971 199.147 33.2295 199.32 31.6738C199.493 30.099 199.579 28.1496 199.579 25.8257C199.579 23.5402 199.493 21.6004 199.32 20.0063C199.147 18.4123 198.84 17.1351 198.398 16.1748C197.975 15.2145 197.39 14.5231 196.641 14.1006C195.892 13.6589 194.97 13.438 193.875 13.438C192.723 13.438 191.781 13.6589 191.052 14.1006C190.322 14.5231 189.736 15.2145 189.294 16.1748C188.872 17.1351 188.574 18.4123 188.401 20.0063C188.228 21.6004 188.142 23.5402 188.142 25.8257Z" fill="black"/>
<path d="M10.638 62.1C12.384 62.1 13.905 62.388 15.201 62.964C16.497 63.54 17.496 64.368 18.198 65.448C18.9 66.528 19.251 67.788 19.251 69.228C19.251 70.668 18.9 71.928 18.198 73.008C17.496 74.088 16.497 74.916 15.201 75.492C13.905 76.068 12.384 76.356 10.638 76.356H7.911V81H1.539V62.1H10.638ZM10.233 71.442C11.097 71.442 11.745 71.253 12.177 70.875C12.609 70.479 12.825 69.93 12.825 69.228C12.825 68.526 12.609 67.986 12.177 67.608C11.745 67.212 11.097 67.014 10.233 67.014H7.911V71.442H10.233Z" fill="black"/>
<path d="M36.7308 76.248H35.0028V81H28.6308V62.1H37.7298C39.4758 62.1 40.9968 62.388 42.2928 62.964C43.5888 63.54 44.5878 64.368 45.2898 65.448C45.9918 66.528 46.3428 67.788 46.3428 69.228C46.3428 70.578 46.0368 71.757 45.4248 72.765C44.8128 73.773 43.9308 74.574 42.7788 75.168L46.7478 81H39.9438L36.7308 76.248ZM39.9168 69.228C39.9168 68.526 39.7008 67.986 39.2688 67.608C38.8368 67.212 38.1888 67.014 37.3248 67.014H35.0028V71.442H37.3248C38.1888 71.442 38.8368 71.253 39.2688 70.875C39.7008 70.479 39.9168 69.93 39.9168 69.228Z" fill="black"/>
<path d="M65.9479 81.432C63.9139 81.432 62.0869 81.009 60.4669 80.163C58.8469 79.317 57.5779 78.147 56.6599 76.653C55.7419 75.141 55.2829 73.44 55.2829 71.55C55.2829 69.66 55.7419 67.968 56.6599 66.474C57.5779 64.962 58.8469 63.783 60.4669 62.937C62.0869 62.091 63.9139 61.668 65.9479 61.668C67.9819 61.668 69.8089 62.091 71.4289 62.937C73.0489 63.783 74.3179 64.962 75.2359 66.474C76.1539 67.968 76.6129 69.66 76.6129 71.55C76.6129 73.44 76.1539 75.141 75.2359 76.653C74.3179 78.147 73.0489 79.317 71.4289 80.163C69.8089 81.009 67.9819 81.432 65.9479 81.432ZM65.9479 76.275C66.7399 76.275 67.4509 76.086 68.0809 75.708C68.7289 75.312 69.2419 74.763 69.6199 74.061C69.9979 73.341 70.1869 72.504 70.1869 71.55C70.1869 70.596 69.9979 69.768 69.6199 69.066C69.2419 68.346 68.7289 67.797 68.0809 67.419C67.4509 67.023 66.7399 66.825 65.9479 66.825C65.1559 66.825 64.4359 67.023 63.7879 67.419C63.1579 67.797 62.6539 68.346 62.2759 69.066C61.8979 69.768 61.7089 70.596 61.7089 71.55C61.7089 72.504 61.8979 73.341 62.2759 74.061C62.6539 74.763 63.1579 75.312 63.7879 75.708C64.4359 76.086 65.1559 76.275 65.9479 76.275Z" fill="black"/>
<path d="M103.091 81L103.037 72.387L98.9326 79.299H96.1246L92.0206 72.684V81H86.2156V62.1H91.4536L97.6096 72.171L103.604 62.1H108.842L108.896 81H103.091Z" fill="black"/>
<path d="M134.98 76.194V81H119.266V62.1H134.629V66.906H125.53V69.12H133.522V73.71H125.53V76.194H134.98Z" fill="black"/>
<path d="M148.827 67.041H143.292V62.1H160.734V67.041H155.199V81H148.827V67.041Z" fill="black"/>
<path d="M185.393 76.194V81H169.679V62.1H185.042V66.906H175.943V69.12H183.935V73.71H175.943V76.194H185.393Z" fill="black"/>
<path d="M205.045 81.432C203.011 81.432 201.184 81.009 199.564 80.163C197.944 79.317 196.675 78.147 195.757 76.653C194.839 75.141 194.38 73.44 194.38 71.55C194.38 69.66 194.839 67.968 195.757 66.474C196.675 64.962 197.944 63.783 199.564 62.937C201.184 62.091 203.011 61.668 205.045 61.668C207.079 61.668 208.906 62.091 210.526 62.937C212.146 63.783 213.415 64.962 214.333 66.474C215.251 67.968 215.71 69.66 215.71 71.55C215.71 73.44 215.251 75.141 214.333 76.653C213.415 78.147 212.146 79.317 210.526 80.163C208.906 81.009 207.079 81.432 205.045 81.432ZM205.045 76.275C205.837 76.275 206.548 76.086 207.178 75.708C207.826 75.312 208.339 74.763 208.717 74.061C209.095 73.341 209.284 72.504 209.284 71.55C209.284 70.596 209.095 69.768 208.717 69.066C208.339 68.346 207.826 67.797 207.178 67.419C206.548 67.023 205.837 66.825 205.045 66.825C204.253 66.825 203.533 67.023 202.885 67.419C202.255 67.797 201.751 68.346 201.373 69.066C200.995 69.768 200.806 70.596 200.806 71.55C200.806 72.504 200.995 73.341 201.373 74.061C201.751 74.763 202.255 75.312 202.885 75.708C203.533 76.086 204.253 76.275 205.045 76.275Z" fill="black"/>
</svg>
